<?xml version="1.0" encoding="UTF-8" standalone="no"?>
<!-- Created with Inkscape (http://www.inkscape.org/) -->

<svg
   xmlns:dc="http://purl.org/dc/elements/1.1/"
   xmlns:cc="http://creativecommons.org/ns#"
   xmlns:rdf="http://www.w3.org/1999/02/22-rdf-syntax-ns#"
   xmlns:svg="http://www.w3.org/2000/svg"
   xmlns="http://www.w3.org/2000/svg"
   xmlns:sodipodi="http://sodipodi.sourceforge.net/DTD/sodipodi-0.dtd"
   xmlns:inkscape="http://www.inkscape.org/namespaces/inkscape"
   width="599"
   height="356"
   id="svg2"
   sodipodi:version="0.32"
   inkscape:version="0.47 r22583"
   version="1.0">
  <g
     inkscape:label="Layer 1"
     inkscape:groupmode="layer"
     id="layer1"
     transform="translate(-81.284039,-509.7588)">
    <path
       id="path11170"
       d="m 272.79849,711.43202 c 5.47979,-0.0257 9.23589,-4.47645 9.21016,-9.51888 l 0,-139.979 c 0,-52.35384 66.8637,-77.4631 102.26364,-16.6709 36.14602,62.07854 56.85602,98.07019 56.85602,98.07019 l 0,-81.34783 c 0,-52.35384 66.76079,-77.4631 102.16073,-16.67091 36.12035,62.07854 57.34488,98.04447 57.34488,98.04447 l 0,-132.51825 79.64987,0 0,232.08059 c 0.15436,59.71168 -69.82227,69.10192 -98.71336,21.32744 -17.00535,-28.11929 -60.30344,-99.89679 -60.30344,-99.89679 l 0,78.54362 c 0.18008,59.68595 -69.77082,69.10193 -98.68764,21.30171 C 405.574,736.0782 362.27596,664.3007 362.27596,664.3007 l 0,71.03142 c 0.0515,36.30038 -21.32743,55.98131 -54.54061,55.98131 l -77.20583,0 C 32.92271,791.18479 31.044661,510.81519 227.87967,510.81519 l 43.88975,0 0,79.46978 c 0,0 -12.55463,-0.0515 -48.3662,0 -80.60176,0.10291 -89.04012,121.24995 5.63415,121.14705 l 43.76112,0 z"
       style="fill:#ee1c23;fill-rule:nonzero;stroke:none" />
    <path
       id="path11174"
       d="m 636.03643,509.95334 0,227.86141 c 0,4.65653 -1.74941,7.97528 -4.73371,8.92717 -2.7013,0.84898 -5.78851,-0.51454 -7.8981,-3.52456 0,0 -116.82496,-187.88211 -116.82496,-187.88211 -4.50217,-6.45741 -11.96291,-9.21016 -18.67758,-7.10057 -6.94621,2.21249 -11.2683,8.90143 -11.24257,17.41697 l 0,172.11165 c 0.0257,4.70798 -1.69796,8.05245 -4.57936,8.95289 -2.62412,0.84898 -5.55696,-0.51454 -7.66655,-3.52456 0,-0.0257 -116.82496,-187.88211 -116.82496,-187.88211 -4.50217,-6.48313 -11.96292,-9.23589 -18.67759,-7.1263 -6.99766,2.2125 -11.31975,8.90144 -11.29402,17.44271 l 0,171.00539 c 0,5.37688 -4.55363,9.90478 -9.93051,9.90478 l -82.58271,-0.0257 c -68.51021,0 -99.74243,-49.39527 -99.76816,-95.26599 -0.0515,-47.67158 33.03309,-95.9606 96.3465,-96.03778 l 50.78452,0 0,-8.92716 -50.81024,0 c -69.15338,0.1029 -105.2994,52.8941 -105.24794,104.96494 0.0257,50.1928 34.06215,104.19315 108.69532,104.19315 l 82.58271,0.0257 c 10.39359,0 18.85768,-8.43836 18.85768,-18.83195 l 0,-171.03112 c 0,-4.57935 1.87805,-7.8981 5.04243,-8.90144 3.03575,-0.95189 6.40595,0.41163 8.54127,3.47311 -0.15437,-0.20582 116.85068,187.93356 116.85068,187.93356 4.47645,6.43168 11.42266,9.13298 17.80288,7.1263 5.24825,-1.67224 10.83094,-7.1263 10.80521,-17.49416 l 0,-172.08592 c -0.0257,-4.57935 1.85233,-7.89809 5.01671,-8.90144 3.03575,-0.95188 6.3545,0.41163 8.51554,3.47311 -0.15436,-0.23154 116.85068,187.90784 116.85068,187.90784 4.50218,6.4574 11.55129,9.1587 18.03442,7.12629 5.32543,-1.69796 10.98531,-7.15202 10.95958,-17.46843 l 0,-227.83568 -8.92717,0 z"
       style="fill:#ffffff;fill-rule:nonzero;stroke:none" />
    <path
       id="path11178"
       d="m 137.12872,822.34755 -35.68294,0 0,10.75376 32.77582,0 0,9.03007 -32.77582,0 0,13.22353 37.278,0 0,9.0558 -45.201821,0 c -6.920483,0 -5.839961,-6.63749 -5.839961,-6.63749 l 0,-39.02741 c 0,0 -0.643168,-5.47979 5.402607,-5.42833 6.020049,0.0514 44.044115,0 44.044115,0 l 0,9.03007 z"
       style="fill:#221e1f;fill-rule:nonzero;stroke:none" />
    <path
       id="path11182"
       d="m 316.23803,848.67626 c 0.1029,2.85566 1.95523,8.25827 14.22686,8.25827 6.66322,0 14.04678,-1.20916 14.04678,-6.61176 0,-3.98764 -5.04243,-5.06816 -12.16873,-6.32877 l -7.20347,-1.28634 c -10.85667,-1.9295 -21.35317,-3.78182 -21.35317,-15.02439 0,-5.6856 4.0391,-15.71902 25.85534,-15.71902 20.58136,0 26.1126,10.23923 26.18978,16.51655 l -13.48079,0 c -0.36017,-2.28968 -1.49215,-7.69229 -13.76379,-7.69229 -5.32542,0 -11.67992,1.49215 -11.67992,6.12296 0,3.98764 4.29636,4.83662 7.10057,5.32542 l 16.38791,3.06148 c 9.18443,1.72369 17.59707,4.55363 17.59707,13.73806 0,15.35884 -20.60709,16.72236 -26.49851,16.72236 -24.54327,0 -28.73673,-10.75376 -28.73673,-17.08253 l 13.4808,0 z"
       style="fill:#221e1f;fill-rule:nonzero;stroke:none" />
    <path
       id="path11186"
       d="m 382.71583,864.40556 -14.04678,0 0,-51.09323 30.71768,0 c 13.01771,0 20.89008,6.3545 20.89008,16.36219 0,4.6308 -3.37019,16.31072 -21.45607,16.31072 l -16.10491,0 0,18.42032 z m 13.01771,-27.24457 c 10.49649,0 10.49649,-5.71133 10.49649,-7.97528 0,-4.99098 -3.65319,-7.04912 -12.37454,-7.04912 l -11.13966,0 0,15.0244 13.01771,0 z"
       style="fill:#221e1f;fill-rule:nonzero;stroke:none" />
    <path
       id="path11190"
       d="m 431.33415,864.40556 -14.79285,0 c 0,0 16.10491,-34.06215 19.88674,-42.86068 4.5279,-10.54795 19.37221,-11.42266 24.69763,0 1.85233,3.93618 19.2693,42.86068 19.2693,42.86068 l -15.25593,0 -4.32209,-10.52222 -24.80054,0 -4.68226,10.52222 z m 8.41263,-19.34648 17.15971,0 -8.33545,-20.22118 -0.20581,0 -8.61845,20.22118 z"
       style="fill:#221e1f;fill-rule:nonzero;stroke:none" />
    <path
       id="path11194"
       d="m 535.88747,797.43381 c -0.46308,2.13532 -2.44403,8.54127 -10.2135,8.54127 -2.05814,0 -5.42833,-0.72035 -7.1263,-1.13198 -2.98429,-0.72035 -5.04243,-1.44069 -6.63749,-1.44069 -3.26729,0 -4.21917,2.28967 -4.39926,3.06147 l -5.99432,0 c 0.3859,-1.41496 1.02907,-3.55028 2.72703,-5.4026 1.77514,-1.8266 4.39926,-3.34448 8.61844,-3.34448 2.13532,0 3.55029,0.43736 6.71467,1.33779 3.19011,0.95189 4.50218,1.23489 5.81424,1.23489 3.0872,0 4.03909,-1.64651 4.39926,-2.85567 l 6.09723,0 z"
       style="fill:#221e1f;fill-rule:nonzero;stroke:none" />
    <path
       id="path11198"
       d="m 588.87681,811.96425 c 8.90144,0 32.28702,2.90712 32.28702,26.88441 0,23.97728 -23.38558,26.91013 -32.28702,26.91013 -8.90144,0 -32.31274,-2.93285 -32.31274,-26.91013 0,-23.97729 23.4113,-26.88441 32.31274,-26.88441 m 0,44.76447 c 7.58938,0 18.26596,-3.55029 18.26596,-17.88006 0,-14.27832 -10.67658,-17.85433 -18.26596,-17.85433 -7.58937,0 -18.26596,3.57601 -18.26596,17.85433 0,14.32977 10.67659,17.88006 18.26596,17.88006"
       style="fill:#221e1f;fill-rule:nonzero;stroke:none" />
    <path
       id="path11202"
       d="m 646.44803,855.1491 33.41899,0 0,9.26161 -39.36186,0 c -10.36786,0 -8.10391,-9.64751 -8.10391,-9.64751 l 0,-41.44572 14.04678,0 0,41.83162 z"
       style="fill:#221e1f;fill-rule:nonzero;stroke:none" />
    <path
       id="path11206"
       d="m 295.99883,822.90067 -35.68294,0 0,10.72804 32.77582,0 0,9.0558 -32.77582,0 0,13.22352 37.278,0 0,9.03008 -45.22755,0 c -6.89475,0 -5.81423,-6.63749 -5.81423,-6.63749 l 0,-39.00168 c 0,0 -0.64317,-5.47979 5.4026,-5.42834 6.02005,0.0257 44.04412,0 44.04412,0 l 0,9.03007 z"
       style="fill:#221e1f;fill-rule:nonzero;stroke:none" />
    <path
       id="path11218"
       d="m 187.38069,862.67673 c -3.65319,-3.49883 -28.83963,-31.95257 -28.83963,-31.95257 l -0.20582,0 0,34.80823 -13.09489,0 0,-44.66155 c 0,0 0.25727,-6.97194 8.23255,-6.97194 7.33211,0 11.29402,5.65988 11.29402,5.65988 l 24.98063,28.711"
       style="fill:#221e1f;fill-rule:nonzero;stroke:none" />
    <path
       id="path11222"
       d="m 189.00662,848.52704 0.18008,0 0,-34.80823 13.12062,0 0,44.63583 c 0,0 -0.28299,6.99767 -8.23254,6.99767 -7.33211,0 -12.06583,-7.20348 -12.06583,-7.20348 l -24.80054,-28.78818"
       style="fill:#221e1f;fill-rule:nonzero;stroke:none" />
    <path
       id="path11226"
       d="M 531.83294,862.03356 C 528.17975,858.53473 502.99331,830.081 502.99331,830.081 l -0.20581,0 0,34.7825 -13.0949,0 0,-44.63583 c 0,0 0.25727,-6.99766 8.23255,-6.99766 7.33211,0 11.29402,5.6856 11.29402,5.6856 l 24.98063,28.711"
       style="fill:#221e1f;fill-rule:nonzero;stroke:none" />
    <path
       id="path11230"
       d="m 533.46144,847.87358 0.18009,0 0,-34.80822 13.12062,0 0,44.66155 c 0,0 -0.28299,6.97194 -8.25827,6.97194 -7.33211,0 -12.0401,-7.20348 -12.0401,-7.20348 l -24.80054,-28.78818"
       style="fill:#221e1f;fill-rule:nonzero;stroke:none" />
  </g>
</svg>
